<?xml version="1.0" encoding="utf-8"?>
<!-- Generator: Adobe Illustrator 16.0.3, SVG Export Plug-In . SVG Version: 6.00 Build 0)  -->
<!DOCTYPE svg PUBLIC "-//W3C//DTD SVG 1.1//EN" "http://www.w3.org/Graphics/SVG/1.1/DTD/svg11.dtd">
<svg version="1.1" id="Vrstva_1" xmlns="http://www.w3.org/2000/svg" xmlns:xlink="http://www.w3.org/1999/xlink" x="0px" y="0px"
	 width="40px" height="40px" viewBox="0 0 40 40" enable-background="new 0 0 40 40" xml:space="preserve">
<g>
	<path fill="#323232" d="M28.724,10.694c7.093,4.594,9.364,13.921,5.182,21.263c-4.183,7.339-13.371,10.135-20.941,6.375
		c0.37-1.02,0.735-2.036,1.099-3.053c0.976,0.267,1.977,0.445,2.994,0.544c1.568,0.153,3.15,0.114,4.711-0.146
		c1.5-0.25,2.985-0.694,4.212-1.586c1.257-0.894,2.242-2.246,2.607-3.735c0.246-0.987,0.211-2.026-0.055-2.993
		c-0.234-0.913-0.671-1.752-1.254-2.453c-0.621-0.734-1.4-1.318-2.214-1.83c-0.762-0.48-1.562-0.895-2.388-1.264
		c-0.742-0.332-1.497-0.633-2.235-0.949c-0.636-0.275-1.26-0.564-1.881-0.945c-0.343-0.23-0.691-0.49-0.876-0.847
		c-0.149-0.292-0.181-0.653-0.108-0.971c0.085-0.329,0.276-0.62,0.537-0.837c0.378-0.33,0.881-0.49,1.368-0.576
		c0.7-0.111,1.386-0.082,2.063-0.012c0.858,0.09,1.714,0.256,2.549,0.445c0.715,0.176,1.418,0.363,2.127,0.563
		C27.053,15.363,27.895,13.023,28.724,10.694"/>
	<path fill="#323232" d="M26.166,9.342c-0.41,1.134-0.823,2.275-1.224,3.408c-0.888-0.293-1.758-0.429-2.654-0.512
		c-1.608-0.158-3.293-0.146-4.917,0.258c-1.269,0.32-2.49,0.875-3.433,1.756c-0.804,0.77-1.395,1.777-1.681,2.873
		c-0.323,1.29-0.238,2.696,0.269,3.898c0.449,1.074,1.228,1.989,2.163,2.706c0.902,0.686,1.93,1.189,2.945,1.644
		c0.938,0.426,1.848,0.809,2.809,1.195c0.6,0.253,1.209,0.507,1.725,0.924c0.326,0.269,0.606,0.604,0.738,0.996
		c0.147,0.42,0.147,0.899-0.039,1.295c-0.189,0.396-0.571,0.696-0.957,0.908c-0.912,0.505-1.907,0.538-3.053,0.547
		c-1.191,0.024-2.531,0.018-6.018-1.029c-0.793,2.191-1.58,4.383-2.367,6.578C-4.472,25.525,8.875,2.174,26.166,9.342"/>
</g>
</svg>
