<?xml version="1.0" encoding="UTF-8"?>
<svg width="51.045" height="60" version="1.1" viewBox="0 0 13.506 15.875" xmlns="http://www.w3.org/2000/svg">
  <g transform="matrix(2.191 0 0 2.191 561.6 114.13)">
    <path d="m-250.16-51.632v6.7846h-1.3099v-0.89493h-3.5309v0.89493h-1.3234v-6.7846c0-0.32519 0.13451-0.46108 0.46143-0.46108h5.2409c0.3266 0 0.46193 0.13589 0.46193 0.46108zm-0.81732 4.9261c0.31429-0.312 0.0974-0.8467-0.3442-0.85422v-3.2154h-3.8413v3.2154c-0.44259 0.0075-0.65909 0.5455-0.34159 0.85651 0.31549 0.3096 0.84889 0.0858 0.84889-0.3557h2.8345c-9e-3 0.44489 0.5298 0.6653 0.8437 0.35341" fill="#323232"/>
  </g>
</svg>
