<?xml version="1.0" encoding="UTF-8"?>
<svg width="54.415" height="60" version="1.1" viewBox="0 0 14.397 15.875" xmlns="http://www.w3.org/2000/svg">
  <g transform="matrix(2.3227 0 0 2.3227 578.75 128.84)">
    <path d="m-242.97-49.669c-1.032 0.34431-2.0664 0.6889-3.0998 1.0338-1.0335-0.34491-2.0663-0.6895-3.0988-1.0338 0.11141-0.33711 0.22211-0.67349 0.33348-1.0102 0.58861 0.19992 1.1775 0.3985 1.7661 0.5976 0.25672 0.08791 0.39709-0.01521 0.39709-0.28568v-3.104c-0.8992-0.59679-0.4765-1.9987 0.60212-1.9987 1.0801 0 1.5021 1.4019 0.60329 1.9987v3.104c0 0.27048 0.14072 0.37359 0.39779 0.28568 0.58702-0.19911 1.1766-0.39769 1.7651-0.5976 0.11169 0.33673 0.2231 0.6731 0.33359 1.0102" fill="#323232"/>
  </g>
</svg>
