<?xml version="1.0" encoding="UTF-8"?>
<svg width="37.97" height="60" version="1.1" viewBox="0 0 10.046 15.875" xmlns="http://www.w3.org/2000/svg">
  <g transform="translate(-100.81 -140.23)">
    <path d="m110.86 149.59v4.2014c0 1.1786-1.5661 0.78548-2.2582 0.78548v1.525h-1.302v-1.525h-2.9266v1.525h-1.3054v-1.525c-0.69 0-2.254 0.3931-2.254-0.78548v-4.2174c0-0.26764 0.0118-0.53667 0.0348-0.80361l0.38683-4.2906c0.046-0.51228 0.26903-0.71301 0.78339-0.71301h2.6987l0.80501-2.2359h-2.1314l-0.50322 0.50461-0.9214-0.9235 0.88446-0.88515h5.9696l0.88586 0.88515-0.9221 0.9235-0.50461-0.50461h-1.3716l-0.8043 2.2359h3.5518c0.51297 0 0.73531 0.20073 0.78131 0.71301l0.38682 4.301c0.023 0.26764 0.0362 0.54016 0.0362 0.80919m-1.3953 3.349c0.53876-0.52901 0.17006-1.4427-0.58267-1.4574v-2.0031c0-0.20351-9e-3 -0.40285-0.0272-0.60427-0.0871-0.95695-0.17563-1.9118-0.26624-2.866h-5.504c-0.0878 0.98343-0.17912 1.9662-0.26694 2.9517-0.0174 0.19864-0.0279 0.40077-0.0279 0.60359v1.9181c-0.75134 0.0146-1.12 0.92837-0.58267 1.4574 0.53388 0.5283 1.4469 0.15124 1.4469-0.60707h4.3658c0 0.75831 0.91025 1.1354 1.4448 0.60707" fill="#323232"/>
  </g>
</svg>
