<?xml version="1.0" encoding="utf-8"?>
<!-- Generator: Adobe Illustrator 16.0.3, SVG Export Plug-In . SVG Version: 6.00 Build 0)  -->
<!DOCTYPE svg PUBLIC "-//W3C//DTD SVG 1.1//EN" "http://www.w3.org/Graphics/SVG/1.1/DTD/svg11.dtd">
<svg version="1.1" id="Vrstva_1" xmlns="http://www.w3.org/2000/svg" xmlns:xlink="http://www.w3.org/1999/xlink" x="0px" y="0px"
	 width="50px" height="50px" viewBox="0 0 50 50" enable-background="new 0 0 50 50" xml:space="preserve">
<circle fill="#0d6efd" cx="25" cy="25" r="25"/>
<g>
	<path fill="#FFFFFF" d="M31.791,35.845c-0.25-0.701-0.488-1.355-0.744-2.079c-0.067-0.203-0.333-0.184-0.409,0.021
		c-1.002,2.833-3.722,4.854-6.896,4.854c-4.042,0-7.327-3.284-7.327-7.332c0-2.085,0.87-3.968,2.27-5.3
		c0.261-0.241,0.232-0.649,0.232-0.649l-0.135-1.682c0,0-0.05-0.488-0.468-0.201c-2.472,1.723-4.09,4.588-4.09,7.832
		c0,5.26,4.257,9.525,9.517,9.525c3.348,0,6.27-1.757,7.964-4.358C31.773,36.368,31.873,36.121,31.791,35.845"/>
	<path fill="#FFFFFF" d="M23.833,11.655c0,1.964-1.065,3.635-2.603,3.635c-1.537,0-2.595-1.617-2.595-3.635
		c0-1.53,1.058-2.489,2.595-2.489C22.768,9.166,23.833,10.125,23.833,11.655"/>
	<path fill="#FFFFFF" d="M35.774,38.003c0,0.658-0.533,1.189-1.189,1.189c-0.491,0-0.896-0.284-1.086-0.695
		c0,0-2.162-5.966-2.829-7.952c-1.681,0.092-7.805,0.608-7.861,0.608c-1.517,0.129-2.836-0.999-2.968-2.509l-0.559-7.241
		l-0.247-3.41c-0.089-1.12,0.62-1.662,1.367-1.915c0.396-0.129,1.14-0.267,2.051,0.149c1.06,0.485,1.512,1.547,1.723,2.707
		c0.115,0.836,0.365,2.822,0.365,2.822s6.221,0.021,6.232,0.021c0.505,0.034,0.897,0.444,0.897,0.956
		c0,0.465-0.328,0.85-0.759,0.936c-0.023,0.006-6.183,0.439-6.183,0.439l0.201,3.031l6.52-0.052
		c0.797-0.052,1.532,0.448,1.758,1.206C33.208,28.294,35.774,37.872,35.774,38.003"/>
</g>
</svg>
