<?xml version="1.0" encoding="utf-8"?>
<!-- Generator: Adobe Illustrator 16.0.3, SVG Export Plug-In . SVG Version: 6.00 Build 0)  -->
<!DOCTYPE svg PUBLIC "-//W3C//DTD SVG 1.1//EN" "http://www.w3.org/Graphics/SVG/1.1/DTD/svg11.dtd">
<svg version="1.1" id="Vrstva_1" xmlns="http://www.w3.org/2000/svg" xmlns:xlink="http://www.w3.org/1999/xlink" x="0px" y="0px"
	 width="50px" height="50px" viewBox="0 0 50 50" enable-background="new 0 0 50 50" xml:space="preserve">
<circle fill="#0d6efd" cx="25" cy="25" r="25"/>
<g>
	<path fill="#FFFFFF" d="M5.373,23.65l6.363-0.027l-2.703-2.675c-0.526-0.523-0.513-1.386,0.006-1.915
		c0.524-0.524,1.387-0.543,1.915-0.019l4.63,4.595l7.108-0.029l-3.523-6.138l-6.486-1.758c-0.714-0.194-1.138-0.949-0.94-1.663
		c0.192-0.717,0.938-1.16,1.652-0.966l3.857,1.044L14.093,8.6c-0.369-0.646-0.133-1.477,0.51-1.845
		c0.645-0.369,1.482-0.157,1.854,0.486l3.164,5.516l0.99-3.674c0.197-0.714,0.952-1.133,1.669-0.938
		c0.717,0.191,1.155,0.935,0.961,1.651l-1.564,6.381l3.655,6.202l3.496-6.089l-1.889-6.563c-0.193-0.716,0.175-1.499,0.897-1.693
		c0.712-0.194,1.573,0.285,1.766,1.005l1.146,3.91l3.158-5.497c0.367-0.646,1.104-0.917,1.751-0.548
		c0.642,0.372,0.78,1.145,0.407,1.791l-3.164,5.51l3.631-1.013c0.716-0.191,1.442,0.24,1.634,0.955
		c0.194,0.718-0.199,1.487-0.912,1.682l-6.274,1.714L27.5,23.604l6.951-0.05l4.709-4.713c0.522-0.529,1.382-0.458,1.904,0.064
		c0.532,0.524,0.543,1.318,0.018,1.846l-2.812,2.768l6.338-0.028c0.744-0.008,1.346,0.612,1.354,1.354
		c0.001,0.744-0.602,1.366-1.345,1.366l-6.356,0.025l2.697,2.743c0.527,0.532,0.52,1.421-0.007,1.951
		c-0.52,0.529-1.384,0.494-1.91-0.029l-4.629-4.646l-7.029,0.031l3.526,6.141l6.425,1.784c0.721,0.196,1.081,0.983,0.886,1.699
		c-0.194,0.719-0.878,1.127-1.598,0.931l-3.794-1.077l3.159,5.502c0.371,0.644,0.136,1.475-0.509,1.844
		c-0.647,0.367-1.484,0.153-1.854-0.486l-3.162-5.517l-1.053,3.704c-0.2,0.713-0.978,1.153-1.7,0.959
		c-0.714-0.197-1.109-0.961-0.914-1.682l1.784-6.299l-3.454-6.055l-3.526,6.138l1.658,6.43c0.191,0.712-0.325,1.41-1.042,1.606
		c-0.716,0.195-1.389-0.175-1.58-0.892l-0.954-3.809l-3.161,5.505c-0.368,0.64-1.104,0.914-1.746,0.545
		c-0.646-0.374-0.782-1.142-0.412-1.787l3.169-5.513l-3.87,0.879c-0.715,0.192-1.555-0.306-1.749-1.021
		c-0.195-0.718,0.372-1.389,1.091-1.581l6.443-1.615l3.536-6.155l-7.263-0.05l-4.8,4.725c-0.525,0.531-1.423,0.503-1.948-0.024
		c-0.529-0.521-0.563-1.399-0.04-1.92l2.802-2.844l-6.344,0.025C4.648,26.38,4.04,25.76,4.038,25.019
		C4.037,24.279,4.633,23.655,5.373,23.65"/>
</g>
</svg>
